Coordinates
version=1
nRows=9
nColumns=24
inDegrees=yes

Units are S.I. units (second, meters, Newtons, ...)
Angles are in degrees.

endheader
time	pelvis_tilt	pelvis_list	pelvis_rotation	pelvis_tx	pelvis_ty	pelvis_tz	hip_flexion_r	hip_adduction_r	hip_rotation_r	knee_angle_r	ankle_angle_r	subtalar_angle_r	mtp_angle_r	hip_flexion_l	hip_adduction_l	hip_rotation_l	knee_angle_l	ankle_angle_l	subtalar_angle_l	mtp_angle_l	lumbar_extension	lumbar_bending	lumbar_rotation
      0.52900000	     -0.52989179	      5.53338645	      3.71588960	     -0.83417937	      0.97374708	      0.32025294	     26.59256720	     -4.27035999	     -5.43377769	     -5.50902823	      8.83275500	     -5.33948857	      0.73707913	    -14.79645550	      9.06839601	      7.21831624	    -10.87252715	     11.69489878	     -5.71026856	      0.39144565	     -0.47788032	     -3.53619412	     -0.88539261
      0.53316667	     -0.58227963	      5.52961300	      3.72355749	     -0.82813611	      0.97326531	      0.32054648	     26.67733433	     -4.21347402	     -5.57727795	     -5.84695854	      8.67456279	     -5.17384930	      5.60647533	    -14.81455842	      9.01552445	      7.01249146	    -11.41739237	     11.59477105	     -5.36894728	      1.54396646	     -0.35851512	     -3.53239341	     -0.89341070
      0.53733333	     -0.63094964	      5.53002629	      3.70565971	     -0.82208845	      0.97282942	      0.32089376	     26.74248542	     -4.13519155	     -5.52337592	     -6.22216372	      8.62158495	     -5.25147764	      5.62237563	    -14.84702889	      8.97730969	      6.86188484	    -11.93071608	     11.40061070	     -5.13717201	      1.56729974	     -0.25227157	     -3.54143196	     -0.93908534
      0.54150000	     -0.67767100	      5.50779632	      3.69352985	     -0.81596182	      0.97243039	      0.32123954	     26.78495019	     -4.03671549	     -5.46641897	     -6.61244454	      8.47378095	     -5.31424826	      5.65236219	    -14.85722742	      8.91044382	      6.66650395	    -12.49541815	     11.22497289	     -4.85840219	      1.62457997	     -0.13299115	     -3.51897621	     -0.98469579
      0.54566667	     -0.69057097	      5.46678686	      3.68475789	     -0.80981112	      0.97210840	      0.32161176	     26.76933277	     -3.91442270	     -5.36463365	     -7.01008034	      8.32322534	     -5.50316110	      5.78254131	    -14.86460013	      8.81350186	      6.40885064	    -13.13096231	     11.07469109	     -4.49018200	      1.89177896	     -0.05208237	     -3.47967706	     -1.01884060
      0.54983333	     -0.77452850	      5.44908893	      3.66024864	     -0.80361673	      0.97171471	      0.32197598	     26.84712803	     -3.81622114	     -5.22899869	     -7.47500981	      8.08414086	     -5.60115521	      5.84984277	    -14.80474283	      8.76221355	      6.22128498	    -13.74887140	     10.81136548	     -4.31351283	      2.03801402	      0.12127324	     -3.46983269	     -1.05373964
      0.55400000	     -0.76984796	      5.37381639	      3.59396798	     -0.79733191	      0.97147397	      0.32243897	     26.78378057	     -3.62366552	     -4.96347383	     -7.88505696	      7.79338027	     -6.02480659	      6.24315009	    -14.82713844	      8.63409332	      5.88494536	    -14.37032444	     10.52761180	     -3.95290534	      2.92327185	      0.19422105	     -3.38056931	     -1.07778822
      0.55816667	     -0.84986755	      5.33663580	      3.57250188	     -0.79103429	      0.97116013	      0.32278424	     26.85883361	     -3.51654345	     -4.88163401	     -8.42829129	      7.48039384	     -6.07412890	      6.28512545	    -14.76204161	      8.56436618	      5.74572637	    -14.99415035	     10.12177246	     -3.83581237	      3.03008817	      0.37693515	     -3.33674740	     -1.09421650
      0.56233333	     -0.89384365	      5.25031461	      3.54070403	     -0.78471019	      0.97091511	      0.32322933	     26.83790468	     -3.33013570	     -4.63788188	     -8.88570783	      7.19194174	     -6.54000153	      6.54088361	    -14.65757416	      8.41233133	      5.37326423	    -15.75804765	      9.81116254	     -3.38683621	      3.68866696	      0.52249757	     -3.24281296	     -1.10763517
